<svg xmlns="http://www.w3.org/2000/svg" viewBox="0 0 24 24" role="img" aria-labelledby="title">
  <title id="title">Amazon Web Services</title>
  <path fill="#7d8590" d="M7.5 17.5a5.5 5.5 0 0 1-.7-11 6.5 6.5 0 0 1 12.4 2.7 4.2 4.2 0 0 1-.8 8.3H7.5Zm0-2h10.9a2.2 2.2 0 0 0 .2-4.4l-1.2-.1-.1-1.2a4.5 4.5 0 0 0-8.7-1.3l-.5 1.1-1.2-.2a3.1 3.1 0 0 0 .6 6.1Z"/>
  <path fill="none" stroke="#7d8590" stroke-width="1.4" stroke-linecap="round" d="M8 19.6c2.8 1.2 6.1 1.2 8.9-.1m-1.5-.5 1.8.3-.7 1.7"/>
</svg>
